{
    "asset" : {
        "generator" : "Khronos glTF Blender I/O v1.6.16",
        "version" : "2.0"
    },
    "extensionsUsed" : [
        "KHR_materials_clearcoat",
        "KHR_materials_transmission"
    ],
    "scene" : 0,
    "scenes" : [
        {
            "name" : "Scene",
            "nodes" : [
                0,
                1,
                2,
                3,
                4,
                5,
                6,
                7,
                8,
                9,
                10,
                11
            ]
        }
    ],
    "nodes" : [
        {
            "mesh" : 0,
            "name" : "Cube",
            "translation" : [
                -1,
                0,
                -1
            ]
        },
        {
            "mesh" : 0,
            "name" : "Cube.001",
            "translation" : [
                1,
                0,
                -1
            ]
        },
        {
            "mesh" : 0,
            "name" : "Cube.002",
            "translation" : [
                -1,
                0,
                1
            ]
        },
        {
            "mesh" : 0,
            "name" : "Cube.003",
            "translation" : [
                1,
                0,
                1
            ]
        },
        {
            "mesh" : 1,
            "name" : "Door Body",
            "translation" : [
                2.0999999046325684,
                1.2000000476837158,
                0
            ]
        },
        {
            "mesh" : 1,
            "name" : "Door Body.001",
            "translation" : [
                -2.0999999046325684,
                1.2000000476837158,
                0
            ]
        },
        {
            "mesh" : 2,
            "name" : "Threshold",
            "translation" : [
                -2.1000001430511475,
                0,
                0
            ]
        },
        {
            "mesh" : 2,
            "name" : "Threshold.001",
            "translation" : [
                2.1000001430511475,
                0,
                0
            ]
        },
        {
            "mesh" : 3,
            "name" : "Window Frame",
            "rotation" : [
                0,
                0,
                -0.7071068286895752,
                0.7071068286895752
            ],
            "translation" : [
                2.0999999046325684,
                1.7000000476837158,
                0
            ]
        },
        {
            "mesh" : 4,
            "name" : "Glass",
            "rotation" : [
                0,
                0,
                -0.7071068286895752,
                0.7071068286895752
            ],
            "translation" : [
                2.0999999046325684,
                1.7000000476837158,
                0
            ]
        },
        {
            "mesh" : 3,
            "name" : "Window Frame.001",
            "rotation" : [
                0,
                0,
                -0.7071068286895752,
                0.7071068286895752
            ],
            "translation" : [
                -2.0999999046325684,
                1.7000000476837158,
                0
            ]
        },
        {
            "mesh" : 4,
            "name" : "Glass.001",
            "rotation" : [
                0,
                0,
                -0.7071068286895752,
                0.7071068286895752
            ],
            "translation" : [
                -2.0999999046325684,
                1.7000000476837158,
                0
            ]
        }
    ],
    "materials" : [
        {
            "name" : "Floor",
            "pbrMetallicRoughness" : {
                "baseColorFactor" : [
                    0.16794677078723907,
                    0.08204654604196548,
                    0.013903763145208359,
                    1
                ],
                "metallicFactor" : 0,
                "roughnessFactor" : 0.7616071701049805
            }
        },
        {
            "doubleSided" : true,
            "name" : "Material.001",
            "pbrMetallicRoughness" : {
                "baseColorFactor" : [
                    0.800000011920929,
                    0.800000011920929,
                    0.800000011920929,
                    1
                ],
                "metallicFactor" : 0,
                "roughnessFactor" : 0.4000000059604645
            }
        },
        {
            "doubleSided" : true,
            "extensions" : {
                "KHR_materials_clearcoat" : {
                    "clearcoatFactor" : 0.20098039507865906,
                    "clearcoatRoughnessFactor" : 0.029999999329447746
                }
            },
            "name" : "Rubber",
            "pbrMetallicRoughness" : {
                "baseColorFactor" : [
                    0.01599481701850891,
                    0.01599481701850891,
                    0.01599481701850891,
                    1
                ],
                "metallicFactor" : 0,
                "roughnessFactor" : 0.8578431606292725
            }
        },
        {
            "doubleSided" : true,
            "name" : "Chrome",
            "pbrMetallicRoughness" : {
                "baseColorFactor" : [
                    0.6242796182632446,
                    0.6805940866470337,
                    0.8000000715255737,
                    1
                ],
                "roughnessFactor" : 0.5
            }
        },
        {
            "doubleSided" : true,
            "extensions" : {
                "KHR_materials_transmission" : {
                    "transmissionFactor" : 0.800000011920929
                }
            },
            "name" : "Glass",
            "pbrMetallicRoughness" : {
                "baseColorFactor" : [
                    0.800000011920929,
                    0.800000011920929,
                    0.800000011920929,
                    1
                ],
                "metallicFactor" : 0,
                "roughnessFactor" : 0
            }
        }
    ],
    "meshes" : [
        {
            "name" : "Cube.001",
            "primitives" : [
                {
                    "attributes" : {
                        "POSITION" : 0,
                        "NORMAL" : 1,
                        "TEXCOORD_0" : 2
                    },
                    "indices" : 3,
                    "material" : 0
                }
            ]
        },
        {
            "name" : "Cube.002",
            "primitives" : [
                {
                    "attributes" : {
                        "POSITION" : 4,
                        "NORMAL" : 5,
                        "TEXCOORD_0" : 6
                    },
                    "indices" : 7,
                    "material" : 1
                }
            ]
        },
        {
            "name" : "Cube.003",
            "primitives" : [
                {
                    "attributes" : {
                        "POSITION" : 8,
                        "NORMAL" : 9,
                        "TEXCOORD_0" : 10
                    },
                    "indices" : 11,
                    "material" : 2
                }
            ]
        },
        {
            "name" : "Cylinder",
            "primitives" : [
                {
                    "attributes" : {
                        "POSITION" : 12,
                        "NORMAL" : 13,
                        "TEXCOORD_0" : 14
                    },
                    "indices" : 15,
                    "material" : 3
                }
            ]
        },
        {
            "name" : "Cylinder.004",
            "primitives" : [
                {
                    "attributes" : {
                        "POSITION" : 16,
                        "NORMAL" : 17,
                        "TEXCOORD_0" : 18
                    },
                    "indices" : 19,
                    "material" : 4
                }
            ]
        }
    ],
    "accessors" : [
        {
            "bufferView" : 0,
            "componentType" : 5126,
            "count" : 40,
            "max" : [
                1,
                0.09999996423721313,
                1
            ],
            "min" : [
                -1,
                -0.09999996423721313,
                -1
            ],
            "type" : "VEC3"
        },
        {
            "bufferView" : 1,
            "componentType" : 5126,
            "count" : 40,
            "type" : "VEC3"
        },
        {
            "bufferView" : 2,
            "componentType" : 5126,
            "count" : 40,
            "type" : "VEC2"
        },
        {
            "bufferView" : 3,
            "componentType" : 5123,
            "count" : 60,
            "type" : "SCALAR"
        },
        {
            "bufferView" : 4,
            "componentType" : 5126,
            "count" : 440,
            "max" : [
                0.09999996423721313,
                1,
                1
            ],
            "min" : [
                -0.09999996423721313,
                -1,
                -1
            ],
            "type" : "VEC3"
        },
        {
            "bufferView" : 5,
            "componentType" : 5126,
            "count" : 440,
            "type" : "VEC3"
        },
        {
            "bufferView" : 6,
            "componentType" : 5126,
            "count" : 440,
            "type" : "VEC2"
        },
        {
            "bufferView" : 7,
            "componentType" : 5123,
            "count" : 864,
            "type" : "SCALAR"
        },
        {
            "bufferView" : 8,
            "componentType" : 5126,
            "count" : 330,
            "max" : [
                0.10000024735927582,
                2.3000001907348633,
                1.100000023841858
            ],
            "min" : [
                -0.09999986737966537,
                0.10000009089708328,
                -1.100000023841858
            ],
            "type" : "VEC3"
        },
        {
            "bufferView" : 9,
            "componentType" : 5126,
            "count" : 330,
            "type" : "VEC3"
        },
        {
            "bufferView" : 10,
            "componentType" : 5126,
            "count" : 330,
            "type" : "VEC2"
        },
        {
            "bufferView" : 11,
            "componentType" : 5123,
            "count" : 675,
            "type" : "SCALAR"
        },
        {
            "bufferView" : 12,
            "componentType" : 5126,
            "count" : 776,
            "max" : [
                0.30000001192092896,
                0.125,
                0.30000001192092896
            ],
            "min" : [
                -0.30000001192092896,
                -0.125,
                -0.30000001192092896
            ],
            "type" : "VEC3"
        },
        {
            "bufferView" : 13,
            "componentType" : 5126,
            "count" : 776,
            "type" : "VEC3"
        },
        {
            "bufferView" : 14,
            "componentType" : 5126,
            "count" : 776,
            "type" : "VEC2"
        },
        {
            "bufferView" : 15,
            "componentType" : 5123,
            "count" : 1536,
            "type" : "SCALAR"
        },
        {
            "bufferView" : 16,
            "componentType" : 5126,
            "count" : 384,
            "max" : [
                0.2800000011920929,
                0.07500000298023224,
                0.2800000011920929
            ],
            "min" : [
                -0.2800000011920929,
                -0.07500000298023224,
                -0.2800000011920929
            ],
            "type" : "VEC3"
        },
        {
            "bufferView" : 17,
            "componentType" : 5126,
            "count" : 384,
            "type" : "VEC3"
        },
        {
            "bufferView" : 18,
            "componentType" : 5126,
            "count" : 384,
            "type" : "VEC2"
        },
        {
            "bufferView" : 19,
            "componentType" : 5123,
            "count" : 756,
            "type" : "SCALAR"
        }
    ],
    "bufferViews" : [
        {
            "buffer" : 0,
            "byteLength" : 480,
            "byteOffset" : 0
        },
        {
            "buffer" : 0,
            "byteLength" : 480,
            "byteOffset" : 480
        },
        {
            "buffer" : 0,
            "byteLength" : 320,
            "byteOffset" : 960
        },
        {
            "buffer" : 0,
            "byteLength" : 120,
            "byteOffset" : 1280
        },
        {
            "buffer" : 0,
            "byteLength" : 5280,
            "byteOffset" : 1400
        },
        {
            "buffer" : 0,
            "byteLength" : 5280,
            "byteOffset" : 6680
        },
        {
            "buffer" : 0,
            "byteLength" : 3520,
            "byteOffset" : 11960
        },
        {
            "buffer" : 0,
            "byteLength" : 1728,
            "byteOffset" : 15480
        },
        {
            "buffer" : 0,
            "byteLength" : 3960,
            "byteOffset" : 17208
        },
        {
            "buffer" : 0,
            "byteLength" : 3960,
            "byteOffset" : 21168
        },
        {
            "buffer" : 0,
            "byteLength" : 2640,
            "byteOffset" : 25128
        },
        {
            "buffer" : 0,
            "byteLength" : 1350,
            "byteOffset" : 27768
        },
        {
            "buffer" : 0,
            "byteLength" : 9312,
            "byteOffset" : 29120
        },
        {
            "buffer" : 0,
            "byteLength" : 9312,
            "byteOffset" : 38432
        },
        {
            "buffer" : 0,
            "byteLength" : 6208,
            "byteOffset" : 47744
        },
        {
            "buffer" : 0,
            "byteLength" : 3072,
            "byteOffset" : 53952
        },
        {
            "buffer" : 0,
            "byteLength" : 4608,
            "byteOffset" : 57024
        },
        {
            "buffer" : 0,
            "byteLength" : 4608,
            "byteOffset" : 61632
        },
        {
            "buffer" : 0,
            "byteLength" : 3072,
            "byteOffset" : 66240
        },
        {
            "buffer" : 0,
            "byteLength" : 1512,
            "byteOffset" : 69312
        }
    ],
    "buffers" : [
        {
            "byteLength" : 70824,
            "uri" : "data:application/octet-stream;base64,"
        }
    ]
}
