{
    "asset" : {
        "generator" : "Khronos glTF Blender I/O v1.6.16",
        "version" : "2.0"
    },
    "extensionsUsed" : [
        "KHR_materials_clearcoat",
        "KHR_materials_transmission"
    ],
    "scene" : 0,
    "scenes" : [
        {
            "name" : "Scene",
            "nodes" : [
                0,
                2,
                4,
                5,
                6,
                7,
                8,
                9
            ]
        }
    ],
    "nodes" : [
        {
            "mesh" : 0,
            "name" : "Walls",
            "scale" : [
                0.5720019936561584,
                1,
                1
            ],
            "translation" : [
                2.1000001430511475,
                0,
                0
            ]
        },
        {
            "mesh" : 1,
            "name" : "Threshold",
            "translation" : [
                -4.199999809265137,
                -1.2000000476837158,
                0
            ]
        },
        {
            "children" : [
                1
            ],
            "mesh" : 2,
            "name" : "Door Body",
            "translation" : [
                2.0999999046325684,
                1.2000000476837158,
                0
            ]
        },
        {
            "mesh" : 1,
            "name" : "Threshold.001",
            "translation" : [
                4.199999809265137,
                -1.2000000476837158,
                0
            ]
        },
        {
            "children" : [
                3
            ],
            "mesh" : 2,
            "name" : "Door Body.001",
            "translation" : [
                -2.0999999046325684,
                1.2000000476837158,
                0
            ]
        },
        {
            "mesh" : 3,
            "name" : "Floor"
        },
        {
            "mesh" : 4,
            "name" : "Window Frame",
            "rotation" : [
                0,
                0,
                -0.7071068286895752,
                0.7071068286895752
            ],
            "translation" : [
                2.0999999046325684,
                1.7000000476837158,
                0
            ]
        },
        {
            "mesh" : 5,
            "name" : "Glass",
            "rotation" : [
                0,
                0,
                -0.7071068286895752,
                0.7071068286895752
            ],
            "translation" : [
                2.0999999046325684,
                1.7000000476837158,
                0
            ]
        },
        {
            "mesh" : 4,
            "name" : "Window Frame.001",
            "rotation" : [
                0,
                0,
                -0.7071068286895752,
                0.7071068286895752
            ],
            "translation" : [
                -2.0999999046325684,
                1.7000000476837158,
                0
            ]
        },
        {
            "mesh" : 5,
            "name" : "Glass.001",
            "rotation" : [
                0,
                0,
                -0.7071068286895752,
                0.7071068286895752
            ],
            "translation" : [
                -2.0999999046325684,
                1.7000000476837158,
                0
            ]
        }
    ],
    "materials" : [
        {
            "doubleSided" : true,
            "name" : "Material.002",
            "pbrMetallicRoughness" : {
                "baseColorTexture" : {
                    "index" : 0
                },
                "metallicFactor" : 0,
                "roughnessFactor" : 0.5
            }
        },
        {
            "doubleSided" : true,
            "extensions" : {
                "KHR_materials_clearcoat" : {
                    "clearcoatFactor" : 0.20098039507865906,
                    "clearcoatRoughnessFactor" : 0.029999999329447746
                }
            },
            "name" : "Rubber",
            "pbrMetallicRoughness" : {
                "baseColorFactor" : [
                    0.01599481701850891,
                    0.01599481701850891,
                    0.01599481701850891,
                    1
                ],
                "metallicFactor" : 0,
                "roughnessFactor" : 0.8578431606292725
            }
        },
        {
            "doubleSided" : true,
            "name" : "Material.001",
            "pbrMetallicRoughness" : {
                "baseColorFactor" : [
                    0.800000011920929,
                    0.800000011920929,
                    0.800000011920929,
                    1
                ],
                "metallicFactor" : 0,
                "roughnessFactor" : 0.4000000059604645
            }
        },
        {
            "doubleSided" : true,
            "name" : "Chrome",
            "pbrMetallicRoughness" : {
                "baseColorFactor" : [
                    0.6242796182632446,
                    0.6805940866470337,
                    0.8000000715255737,
                    1
                ],
                "roughnessFactor" : 0.5
            }
        },
        {
            "doubleSided" : true,
            "extensions" : {
                "KHR_materials_transmission" : {
                    "transmissionFactor" : 0.800000011920929
                }
            },
            "name" : "Glass",
            "pbrMetallicRoughness" : {
                "baseColorFactor" : [
                    0.800000011920929,
                    0.800000011920929,
                    0.800000011920929,
                    1
                ],
                "metallicFactor" : 0,
                "roughnessFactor" : 0
            }
        }
    ],
    "meshes" : [
        {
            "name" : "Cube.006",
            "primitives" : [
                {
                    "attributes" : {
                        "POSITION" : 0,
                        "NORMAL" : 1,
                        "TEXCOORD_0" : 2
                    },
                    "indices" : 3,
                    "material" : 0
                }
            ]
        },
        {
            "name" : "Cube.003",
            "primitives" : [
                {
                    "attributes" : {
                        "POSITION" : 4,
                        "NORMAL" : 5,
                        "TEXCOORD_0" : 6
                    },
                    "indices" : 7,
                    "material" : 1
                }
            ]
        },
        {
            "name" : "Cube.002",
            "primitives" : [
                {
                    "attributes" : {
                        "POSITION" : 8,
                        "NORMAL" : 9,
                        "TEXCOORD_0" : 10
                    },
                    "indices" : 11,
                    "material" : 2
                }
            ]
        },
        {
            "name" : "Cube.004",
            "primitives" : [
                {
                    "attributes" : {
                        "POSITION" : 12,
                        "NORMAL" : 13,
                        "TEXCOORD_0" : 14
                    },
                    "indices" : 15
                }
            ]
        },
        {
            "name" : "Cylinder",
            "primitives" : [
                {
                    "attributes" : {
                        "POSITION" : 16,
                        "NORMAL" : 17,
                        "TEXCOORD_0" : 18
                    },
                    "indices" : 19,
                    "material" : 3
                }
            ]
        },
        {
            "name" : "Cylinder.004",
            "primitives" : [
                {
                    "attributes" : {
                        "POSITION" : 20,
                        "NORMAL" : 21,
                        "TEXCOORD_0" : 22
                    },
                    "indices" : 23,
                    "material" : 4
                }
            ]
        }
    ],
    "textures" : [
        {
            "sampler" : 0,
            "source" : 0
        }
    ],
    "images" : [
        {
            "bufferView" : 4,
            "mimeType" : "image/png",
            "name" : "Large 2x1"
        }
    ],
    "accessors" : [
        {
            "bufferView" : 0,
            "componentType" : 5126,
            "count" : 145,
            "max" : [
                0.09999997168779373,
                3.1999993324279785,
                3.09999942779541
            ],
            "min" : [
                -7.442631721496582,
                -0.19999995827674866,
                -3.099999189376831
            ],
            "type" : "VEC3"
        },
        {
            "bufferView" : 1,
            "componentType" : 5126,
            "count" : 145,
            "type" : "VEC3"
        },
        {
            "bufferView" : 2,
            "componentType" : 5126,
            "count" : 145,
            "type" : "VEC2"
        },
        {
            "bufferView" : 3,
            "componentType" : 5123,
            "count" : 291,
            "type" : "SCALAR"
        },
        {
            "bufferView" : 5,
            "componentType" : 5126,
            "count" : 330,
            "max" : [
                0.10000024735927582,
                2.3000001907348633,
                1.100000023841858
            ],
            "min" : [
                -0.09999986737966537,
                0.10000009089708328,
                -1.100000023841858
            ],
            "type" : "VEC3"
        },
        {
            "bufferView" : 6,
            "componentType" : 5126,
            "count" : 330,
            "type" : "VEC3"
        },
        {
            "bufferView" : 7,
            "componentType" : 5126,
            "count" : 330,
            "type" : "VEC2"
        },
        {
            "bufferView" : 8,
            "componentType" : 5123,
            "count" : 675,
            "type" : "SCALAR"
        },
        {
            "bufferView" : 9,
            "componentType" : 5126,
            "count" : 440,
            "max" : [
                0.09999996423721313,
                1,
                1
            ],
            "min" : [
                -0.09999996423721313,
                -1,
                -1
            ],
            "type" : "VEC3"
        },
        {
            "bufferView" : 10,
            "componentType" : 5126,
            "count" : 440,
            "type" : "VEC3"
        },
        {
            "bufferView" : 11,
            "componentType" : 5126,
            "count" : 440,
            "type" : "VEC2"
        },
        {
            "bufferView" : 12,
            "componentType" : 5123,
            "count" : 864,
            "type" : "SCALAR"
        },
        {
            "bufferView" : 13,
            "componentType" : 5126,
            "count" : 24,
            "max" : [
                2.0999999046325684,
                0,
                3.0999999046325684
            ],
            "min" : [
                -2.0999999046325684,
                -0.20000001788139343,
                -3
            ],
            "type" : "VEC3"
        },
        {
            "bufferView" : 14,
            "componentType" : 5126,
            "count" : 24,
            "type" : "VEC3"
        },
        {
            "bufferView" : 15,
            "componentType" : 5126,
            "count" : 24,
            "type" : "VEC2"
        },
        {
            "bufferView" : 16,
            "componentType" : 5123,
            "count" : 36,
            "type" : "SCALAR"
        },
        {
            "bufferView" : 17,
            "componentType" : 5126,
            "count" : 776,
            "max" : [
                0.30000001192092896,
                0.125,
                0.30000001192092896
            ],
            "min" : [
                -0.30000001192092896,
                -0.125,
                -0.30000001192092896
            ],
            "type" : "VEC3"
        },
        {
            "bufferView" : 18,
            "componentType" : 5126,
            "count" : 776,
            "type" : "VEC3"
        },
        {
            "bufferView" : 19,
            "componentType" : 5126,
            "count" : 776,
            "type" : "VEC2"
        },
        {
            "bufferView" : 20,
            "componentType" : 5123,
            "count" : 1536,
            "type" : "SCALAR"
        },
        {
            "bufferView" : 21,
            "componentType" : 5126,
            "count" : 384,
            "max" : [
                0.2800000011920929,
                0.07500000298023224,
                0.2800000011920929
            ],
            "min" : [
                -0.2800000011920929,
                -0.07500000298023224,
                -0.2800000011920929
            ],
            "type" : "VEC3"
        },
        {
            "bufferView" : 22,
            "componentType" : 5126,
            "count" : 384,
            "type" : "VEC3"
        },
        {
            "bufferView" : 23,
            "componentType" : 5126,
            "count" : 384,
            "type" : "VEC2"
        },
        {
            "bufferView" : 24,
            "componentType" : 5123,
            "count" : 756,
            "type" : "SCALAR"
        }
    ],
    "bufferViews" : [
        {
            "buffer" : 0,
            "byteLength" : 1740,
            "byteOffset" : 0
        },
        {
            "buffer" : 0,
            "byteLength" : 1740,
            "byteOffset" : 1740
        },
        {
            "buffer" : 0,
            "byteLength" : 1160,
            "byteOffset" : 3480
        },
        {
            "buffer" : 0,
            "byteLength" : 582,
            "byteOffset" : 4640
        },
        {
            "buffer" : 0,
            "byteLength" : 1584253,
            "byteOffset" : 5224
        },
        {
            "buffer" : 0,
            "byteLength" : 3960,
            "byteOffset" : 1589480
        },
        {
            "buffer" : 0,
            "byteLength" : 3960,
            "byteOffset" : 1593440
        },
        {
            "buffer" : 0,
            "byteLength" : 2640,
            "byteOffset" : 1597400
        },
        {
            "buffer" : 0,
            "byteLength" : 1350,
            "byteOffset" : 1600040
        },
        {
            "buffer" : 0,
            "byteLength" : 5280,
            "byteOffset" : 1601392
        },
        {
            "buffer" : 0,
            "byteLength" : 5280,
            "byteOffset" : 1606672
        },
        {
            "buffer" : 0,
            "byteLength" : 3520,
            "byteOffset" : 1611952
        },
        {
            "buffer" : 0,
            "byteLength" : 1728,
            "byteOffset" : 1615472
        },
        {
            "buffer" : 0,
            "byteLength" : 288,
            "byteOffset" : 1617200
        },
        {
            "buffer" : 0,
            "byteLength" : 288,
            "byteOffset" : 1617488
        },
        {
            "buffer" : 0,
            "byteLength" : 192,
            "byteOffset" : 1617776
        },
        {
            "buffer" : 0,
            "byteLength" : 72,
            "byteOffset" : 1617968
        },
        {
            "buffer" : 0,
            "byteLength" : 9312,
            "byteOffset" : 1618040
        },
        {
            "buffer" : 0,
            "byteLength" : 9312,
            "byteOffset" : 1627352
        },
        {
            "buffer" : 0,
            "byteLength" : 6208,
            "byteOffset" : 1636664
        },
        {
            "buffer" : 0,
            "byteLength" : 3072,
            "byteOffset" : 1642872
        },
        {
            "buffer" : 0,
            "byteLength" : 4608,
            "byteOffset" : 1645944
        },
        {
            "buffer" : 0,
            "byteLength" : 4608,
            "byteOffset" : 1650552
        },
        {
            "buffer" : 0,
            "byteLength" : 3072,
            "byteOffset" : 1655160
        },
        {
            "buffer" : 0,
            "byteLength" : 1512,
            "byteOffset" : 1658232
        }
    ],
    "samplers" : [
        {
            "magFilter" : 9729,
            "minFilter" : 9987
        }
    ],
    "buffers" : [
        {
            "byteLength" : 1659744,
            "uri" : "data:application/octet-stream;base64,"
        }
    ]
}
