{
    "asset" : {
        "generator" : "Khronos glTF Blender I/O v1.6.16",
        "version" : "2.0"
    },
    "scene" : 0,
    "scenes" : [
        {
            "name" : "Scene",
            "nodes" : [
                0,
                1,
                2,
                3,
                4
            ]
        }
    ],
    "nodes" : [
        {
            "mesh" : 0,
            "name" : "dome",
            "scale" : [
                2,
                1.100000023841858,
                2
            ]
        },
        {
            "name" : "Light",
            "rotation" : [
                0.16907575726509094,
                0.7558803558349609,
                -0.27217137813568115,
                0.570947527885437
            ],
            "translation" : [
                4.076245307922363,
                5.903861999511719,
                -1.0054539442062378
            ]
        },
        {
            "name" : "Camera",
            "rotation" : [
                0.483536034822464,
                0.33687159419059753,
                -0.20870360732078552,
                0.7804827094078064
            ],
            "translation" : [
                7.358891487121582,
                4.958309173583984,
                6.925790786743164
            ]
        },
        {
            "mesh" : 1,
            "name" : "door",
            "rotation" : [
                0.7071067690849304,
                0,
                0,
                0.7071068286895752
            ],
            "scale" : [
                0.5,
                0.09999999403953552,
                0.5
            ],
            "translation" : [
                0,
                1.1803110837936401,
                1.0374807119369507
            ]
        },
        {
            "mesh" : 2,
            "name" : "wheel",
            "rotation" : [
                -0.7071067690849304,
                0,
                0,
                0.7071068286895752
            ],
            "scale" : [
                0.050000011920928955,
                0.050000011920928955,
                0.050000011920928955
            ],
            "translation" : [
                0,
                1.1811676025390625,
                1.1813371181488037
            ]
        }
    ],
    "materials" : [
        {
            "doubleSided" : true,
            "name" : "Dirty White",
            "pbrMetallicRoughness" : {
                "baseColorTexture" : {
                    "index" : 0
                },
                "metallicFactor" : 0,
                "metallicRoughnessTexture" : {
                    "index" : 1
                }
            }
        }
    ],
    "meshes" : [
        {
            "name" : "Cube",
            "primitives" : [
                {
                    "attributes" : {
                        "POSITION" : 0,
                        "NORMAL" : 1,
                        "TEXCOORD_0" : 2
                    },
                    "indices" : 3,
                    "material" : 0
                }
            ]
        },
        {
            "name" : "Cylinder",
            "primitives" : [
                {
                    "attributes" : {
                        "POSITION" : 4,
                        "NORMAL" : 5,
                        "TEXCOORD_0" : 6
                    },
                    "indices" : 7,
                    "material" : 0
                }
            ]
        },
        {
            "name" : "Cylinder.002",
            "primitives" : [
                {
                    "attributes" : {
                        "POSITION" : 8,
                        "NORMAL" : 9,
                        "TEXCOORD_0" : 10
                    },
                    "indices" : 11,
                    "material" : 0
                }
            ]
        }
    ],
    "textures" : [
        {
            "sampler" : 0,
            "source" : 0
        },
        {
            "sampler" : 0,
            "source" : 1
        }
    ],
    "images" : [
        {
            "bufferView" : 4,
            "mimeType" : "image/jpeg",
            "name" : "PlasterWhiteDirty0035_1_600"
        },
        {
            "bufferView" : 5,
            "mimeType" : "image/png",
            "name" : "PlasterWhiteDirty0035_1_600"
        }
    ],
    "accessors" : [
        {
            "bufferView" : 0,
            "componentType" : 5126,
            "count" : 7816,
            "max" : [
                0.9927858114242554,
                1.8652712106704712,
                0.9802225828170776
            ],
            "min" : [
                -0.9927857518196106,
                -1.0000001192092896,
                -0.9802225828170776
            ],
            "type" : "VEC3"
        },
        {
            "bufferView" : 1,
            "componentType" : 5126,
            "count" : 7816,
            "type" : "VEC3"
        },
        {
            "bufferView" : 2,
            "componentType" : 5126,
            "count" : 7816,
            "type" : "VEC2"
        },
        {
            "bufferView" : 3,
            "componentType" : 5123,
            "count" : 21696,
            "type" : "SCALAR"
        },
        {
            "bufferView" : 6,
            "componentType" : 5126,
            "count" : 130,
            "max" : [
                1,
                1,
                1
            ],
            "min" : [
                -1,
                -1,
                -1
            ],
            "type" : "VEC3"
        },
        {
            "bufferView" : 7,
            "componentType" : 5126,
            "count" : 130,
            "type" : "VEC3"
        },
        {
            "bufferView" : 8,
            "componentType" : 5126,
            "count" : 130,
            "type" : "VEC2"
        },
        {
            "bufferView" : 9,
            "componentType" : 5123,
            "count" : 372,
            "type" : "SCALAR"
        },
        {
            "bufferView" : 10,
            "componentType" : 5126,
            "count" : 254,
            "max" : [
                5.866024971008301,
                1,
                5.33012580871582
            ],
            "min" : [
                -5.866024971008301,
                -1,
                -5.33012580871582
            ],
            "type" : "VEC3"
        },
        {
            "bufferView" : 11,
            "componentType" : 5126,
            "count" : 254,
            "type" : "VEC3"
        },
        {
            "bufferView" : 12,
            "componentType" : 5126,
            "count" : 254,
            "type" : "VEC2"
        },
        {
            "bufferView" : 13,
            "componentType" : 5123,
            "count" : 456,
            "type" : "SCALAR"
        }
    ],
    "bufferViews" : [
        {
            "buffer" : 0,
            "byteLength" : 93792,
            "byteOffset" : 0
        },
        {
            "buffer" : 0,
            "byteLength" : 93792,
            "byteOffset" : 93792
        },
        {
            "buffer" : 0,
            "byteLength" : 62528,
            "byteOffset" : 187584
        },
        {
            "buffer" : 0,
            "byteLength" : 43392,
            "byteOffset" : 250112
        },
        {
            "buffer" : 0,
            "byteLength" : 70114,
            "byteOffset" : 293504
        },
        {
            "buffer" : 0,
            "byteLength" : 450672,
            "byteOffset" : 363620
        },
        {
            "buffer" : 0,
            "byteLength" : 1560,
            "byteOffset" : 814292
        },
        {
            "buffer" : 0,
            "byteLength" : 1560,
            "byteOffset" : 815852
        },
        {
            "buffer" : 0,
            "byteLength" : 1040,
            "byteOffset" : 817412
        },
        {
            "buffer" : 0,
            "byteLength" : 744,
            "byteOffset" : 818452
        },
        {
            "buffer" : 0,
            "byteLength" : 3048,
            "byteOffset" : 819196
        },
        {
            "buffer" : 0,
            "byteLength" : 3048,
            "byteOffset" : 822244
        },
        {
            "buffer" : 0,
            "byteLength" : 2032,
            "byteOffset" : 825292
        },
        {
            "buffer" : 0,
            "byteLength" : 912,
            "byteOffset" : 827324
        }
    ],
    "samplers" : [
        {
            "magFilter" : 9729,
            "minFilter" : 9987
        }
    ],
    "buffers" : [
        {
            "byteLength" : 828236,
            "uri" : "data:application/octet-stream;base64,"
        }
    ]
}
