{
    "asset" : {
        "generator" : "Khronos glTF Blender I/O v1.6.16",
        "version" : "2.0"
    },
    "scene" : 0,
    "scenes" : [
        {
            "name" : "Scene",
            "nodes" : [
                0
            ]
        }
    ],
    "nodes" : [
        {
            "mesh" : 0,
            "name" : "Cube"
        }
    ],
    "meshes" : [
        {
            "name" : "Cube.023",
            "primitives" : [
                {
                    "attributes" : {
                        "POSITION" : 0,
                        "NORMAL" : 1,
                        "TEXCOORD_0" : 2
                    },
                    "indices" : 3
                }
            ]
        }
    ],
    "accessors" : [
        {
            "bufferView" : 0,
            "componentType" : 5126,
            "count" : 49759,
            "max" : [
                1.7470078468322754,
                1.8808653354644775,
                1.9583457708358765
            ],
            "min" : [
                -1.7851953506469727,
                -1.8931317329406738,
                -1.6174452304840088
            ],
            "type" : "VEC3"
        },
        {
            "bufferView" : 1,
            "componentType" : 5126,
            "count" : 49759,
            "type" : "VEC3"
        },
        {
            "bufferView" : 2,
            "componentType" : 5126,
            "count" : 49759,
            "type" : "VEC2"
        },
        {
            "bufferView" : 3,
            "componentType" : 5123,
            "count" : 294912,
            "type" : "SCALAR"
        }
    ],
    "bufferViews" : [
        {
            "buffer" : 0,
            "byteLength" : 597108,
            "byteOffset" : 0
        },
        {
            "buffer" : 0,
            "byteLength" : 597108,
            "byteOffset" : 597108
        },
        {
            "buffer" : 0,
            "byteLength" : 398072,
            "byteOffset" : 1194216
        },
        {
            "buffer" : 0,
            "byteLength" : 589824,
            "byteOffset" : 1592288
        }
    ],
    "buffers" : [
        {
            "byteLength" : 2182112,
            "uri" : "data:application/octet-stream;base64,"
        }
    ]
}
