{
    "asset" : {
        "generator" : "Khronos glTF Blender I/O v1.6.16",
        "version" : "2.0"
    },
    "scene" : 0,
    "scenes" : [
        {
            "name" : "Scene",
            "nodes" : [
                0
            ]
        }
    ],
    "nodes" : [
        {
            "mesh" : 0,
            "name" : "Cube"
        }
    ],
    "meshes" : [
        {
            "name" : "Cube.022",
            "primitives" : [
                {
                    "attributes" : {
                        "POSITION" : 0,
                        "NORMAL" : 1,
                        "TEXCOORD_0" : 2
                    },
                    "indices" : 3
                }
            ]
        }
    ],
    "accessors" : [
        {
            "bufferView" : 0,
            "componentType" : 5126,
            "count" : 49742,
            "max" : [
                1.829064130783081,
                1.8448055982589722,
                1.8034906387329102
            ],
            "min" : [
                -1.9651744365692139,
                -1.7044404745101929,
                -1.8475348949432373
            ],
            "type" : "VEC3"
        },
        {
            "bufferView" : 1,
            "componentType" : 5126,
            "count" : 49742,
            "type" : "VEC3"
        },
        {
            "bufferView" : 2,
            "componentType" : 5126,
            "count" : 49742,
            "type" : "VEC2"
        },
        {
            "bufferView" : 3,
            "componentType" : 5123,
            "count" : 294912,
            "type" : "SCALAR"
        }
    ],
    "bufferViews" : [
        {
            "buffer" : 0,
            "byteLength" : 596904,
            "byteOffset" : 0
        },
        {
            "buffer" : 0,
            "byteLength" : 596904,
            "byteOffset" : 596904
        },
        {
            "buffer" : 0,
            "byteLength" : 397936,
            "byteOffset" : 1193808
        },
        {
            "buffer" : 0,
            "byteLength" : 589824,
            "byteOffset" : 1591744
        }
    ],
    "buffers" : [
        {
            "byteLength" : 2181568,
            "uri" : "data:application/octet-stream;base64,"
        }
    ]
}
