{
    "asset" : {
        "generator" : "Khronos glTF Blender I/O v1.6.16",
        "version" : "2.0"
    },
    "scene" : 0,
    "scenes" : [
        {
            "name" : "Scene",
            "nodes" : [
                0
            ]
        }
    ],
    "nodes" : [
        {
            "mesh" : 0,
            "name" : "Cube"
        }
    ],
    "meshes" : [
        {
            "name" : "Cube.025",
            "primitives" : [
                {
                    "attributes" : {
                        "POSITION" : 0,
                        "NORMAL" : 1,
                        "TEXCOORD_0" : 2
                    },
                    "indices" : 3
                }
            ]
        }
    ],
    "accessors" : [
        {
            "bufferView" : 0,
            "componentType" : 5126,
            "count" : 49722,
            "max" : [
                1.8847852945327759,
                1.7790080308914185,
                1.704488754272461
            ],
            "min" : [
                -1.9196244478225708,
                -1.6857413053512573,
                -1.9908963441848755
            ],
            "type" : "VEC3"
        },
        {
            "bufferView" : 1,
            "componentType" : 5126,
            "count" : 49722,
            "type" : "VEC3"
        },
        {
            "bufferView" : 2,
            "componentType" : 5126,
            "count" : 49722,
            "type" : "VEC2"
        },
        {
            "bufferView" : 3,
            "componentType" : 5123,
            "count" : 294912,
            "type" : "SCALAR"
        }
    ],
    "bufferViews" : [
        {
            "buffer" : 0,
            "byteLength" : 596664,
            "byteOffset" : 0
        },
        {
            "buffer" : 0,
            "byteLength" : 596664,
            "byteOffset" : 596664
        },
        {
            "buffer" : 0,
            "byteLength" : 397776,
            "byteOffset" : 1193328
        },
        {
            "buffer" : 0,
            "byteLength" : 589824,
            "byteOffset" : 1591104
        }
    ],
    "buffers" : [
        {
            "byteLength" : 2180928,
            "uri" : "data:application/octet-stream;base64,"
        }
    ]
}
