{
    "asset" : {
        "generator" : "Khronos glTF Blender I/O v1.6.16",
        "version" : "2.0"
    },
    "scene" : 0,
    "scenes" : [
        {
            "name" : "Scene",
            "nodes" : [
                0
            ]
        }
    ],
    "nodes" : [
        {
            "mesh" : 0,
            "name" : "Enterance.001",
            "scale" : [
                2,
                2,
                2
            ],
            "translation" : [
                238.52015686035156,
                146.47592163085938,
                83.2280044555664
            ]
        }
    ],
    "materials" : [
        {
            "doubleSided" : true,
            "name" : "Material.002",
            "pbrMetallicRoughness" : {
                "baseColorFactor" : [
                    0.8000000715255737,
                    0.0060987710021436214,
                    0.05891682580113411,
                    1
                ],
                "metallicFactor" : 0,
                "roughnessFactor" : 0.5
            }
        },
        {
            "doubleSided" : true,
            "name" : "Material",
            "pbrMetallicRoughness" : {
                "baseColorFactor" : [
                    0.800000011920929,
                    0.800000011920929,
                    0.800000011920929,
                    1
                ],
                "metallicFactor" : 0,
                "roughnessFactor" : 0.4000000059604645
            }
        }
    ],
    "meshes" : [
        {
            "name" : "Cube.007",
            "primitives" : [
                {
                    "attributes" : {
                        "POSITION" : 0,
                        "NORMAL" : 1,
                        "TEXCOORD_0" : 2
                    },
                    "indices" : 3,
                    "material" : 0
                },
                {
                    "attributes" : {
                        "POSITION" : 4,
                        "NORMAL" : 5,
                        "TEXCOORD_0" : 6
                    },
                    "indices" : 7,
                    "material" : 1
                }
            ]
        }
    ],
    "accessors" : [
        {
            "bufferView" : 0,
            "componentType" : 5126,
            "count" : 101,
            "max" : [
                21,
                7,
                8
            ],
            "min" : [
                -21,
                -6,
                -8
            ],
            "type" : "VEC3"
        },
        {
            "bufferView" : 1,
            "componentType" : 5126,
            "count" : 101,
            "type" : "VEC3"
        },
        {
            "bufferView" : 2,
            "componentType" : 5126,
            "count" : 101,
            "type" : "VEC2"
        },
        {
            "bufferView" : 3,
            "componentType" : 5123,
            "count" : 144,
            "type" : "SCALAR"
        },
        {
            "bufferView" : 4,
            "componentType" : 5126,
            "count" : 29027,
            "max" : [
                173.59669494628906,
                39.20989990234375,
                85.02471160888672
            ],
            "min" : [
                -390.6377868652344,
                -289.77069091796875,
                -259.0951232910156
            ],
            "type" : "VEC3"
        },
        {
            "bufferView" : 5,
            "componentType" : 5126,
            "count" : 29027,
            "type" : "VEC3"
        },
        {
            "bufferView" : 6,
            "componentType" : 5126,
            "count" : 29027,
            "type" : "VEC2"
        },
        {
            "bufferView" : 7,
            "componentType" : 5123,
            "count" : 174192,
            "type" : "SCALAR"
        }
    ],
    "bufferViews" : [
        {
            "buffer" : 0,
            "byteLength" : 1212,
            "byteOffset" : 0
        },
        {
            "buffer" : 0,
            "byteLength" : 1212,
            "byteOffset" : 1212
        },
        {
            "buffer" : 0,
            "byteLength" : 808,
            "byteOffset" : 2424
        },
        {
            "buffer" : 0,
            "byteLength" : 288,
            "byteOffset" : 3232
        },
        {
            "buffer" : 0,
            "byteLength" : 348324,
            "byteOffset" : 3520
        },
        {
            "buffer" : 0,
            "byteLength" : 348324,
            "byteOffset" : 351844
        },
        {
            "buffer" : 0,
            "byteLength" : 232216,
            "byteOffset" : 700168
        },
        {
            "buffer" : 0,
            "byteLength" : 348384,
            "byteOffset" : 932384
        }
    ],
    "buffers" : [
        {
            "byteLength" : 1280768,
            "uri" : "data:application/octet-stream;base64,"
        }
    ]
}
