{
    "asset" : {
        "generator" : "Khronos glTF Blender I/O v1.6.16",
        "version" : "2.0"
    },
    "scene" : 0,
    "scenes" : [
        {
            "name" : "Scene",
            "nodes" : [
                0
            ]
        }
    ],
    "nodes" : [
        {
            "mesh" : 0,
            "name" : "Cube"
        }
    ],
    "meshes" : [
        {
            "name" : "Cube.024",
            "primitives" : [
                {
                    "attributes" : {
                        "POSITION" : 0,
                        "NORMAL" : 1,
                        "TEXCOORD_0" : 2
                    },
                    "indices" : 3
                }
            ]
        }
    ],
    "accessors" : [
        {
            "bufferView" : 0,
            "componentType" : 5126,
            "count" : 49732,
            "max" : [
                1.9033381938934326,
                1.8042504787445068,
                1.793692708015442
            ],
            "min" : [
                -1.7125463485717773,
                -1.9384803771972656,
                -1.7690578699111938
            ],
            "type" : "VEC3"
        },
        {
            "bufferView" : 1,
            "componentType" : 5126,
            "count" : 49732,
            "type" : "VEC3"
        },
        {
            "bufferView" : 2,
            "componentType" : 5126,
            "count" : 49732,
            "type" : "VEC2"
        },
        {
            "bufferView" : 3,
            "componentType" : 5123,
            "count" : 294912,
            "type" : "SCALAR"
        }
    ],
    "bufferViews" : [
        {
            "buffer" : 0,
            "byteLength" : 596784,
            "byteOffset" : 0
        },
        {
            "buffer" : 0,
            "byteLength" : 596784,
            "byteOffset" : 596784
        },
        {
            "buffer" : 0,
            "byteLength" : 397856,
            "byteOffset" : 1193568
        },
        {
            "buffer" : 0,
            "byteLength" : 589824,
            "byteOffset" : 1591424
        }
    ],
    "buffers" : [
        {
            "byteLength" : 2181248,
            "uri" : "data:application/octet-stream;base64,"
        }
    ]
}
