{
    "asset" : {
        "generator" : "Khronos glTF Blender I/O v1.6.16",
        "version" : "2.0"
    },
    "scene" : 0,
    "scenes" : [
        {
            "name" : "Scene",
            "nodes" : [
                0
            ]
        }
    ],
    "nodes" : [
        {
            "mesh" : 0,
            "name" : "Cube"
        }
    ],
    "meshes" : [
        {
            "name" : "Cube.021",
            "primitives" : [
                {
                    "attributes" : {
                        "POSITION" : 0,
                        "NORMAL" : 1,
                        "TEXCOORD_0" : 2
                    },
                    "indices" : 3
                }
            ]
        }
    ],
    "accessors" : [
        {
            "bufferView" : 0,
            "componentType" : 5126,
            "count" : 49730,
            "max" : [
                1.8411458730697632,
                1.7142258882522583,
                1.7260228395462036
            ],
            "min" : [
                -1.82076096534729,
                -1.8322709798812866,
                -1.7609025239944458
            ],
            "type" : "VEC3"
        },
        {
            "bufferView" : 1,
            "componentType" : 5126,
            "count" : 49730,
            "type" : "VEC3"
        },
        {
            "bufferView" : 2,
            "componentType" : 5126,
            "count" : 49730,
            "type" : "VEC2"
        },
        {
            "bufferView" : 3,
            "componentType" : 5123,
            "count" : 294912,
            "type" : "SCALAR"
        }
    ],
    "bufferViews" : [
        {
            "buffer" : 0,
            "byteLength" : 596760,
            "byteOffset" : 0
        },
        {
            "buffer" : 0,
            "byteLength" : 596760,
            "byteOffset" : 596760
        },
        {
            "buffer" : 0,
            "byteLength" : 397840,
            "byteOffset" : 1193520
        },
        {
            "buffer" : 0,
            "byteLength" : 589824,
            "byteOffset" : 1591360
        }
    ],
    "buffers" : [
        {
            "byteLength" : 2181184,
            "uri" : "data:application/octet-stream;base64,"
        }
    ]
}
