{
    "asset" : {
        "generator" : "Khronos glTF Blender I/O v1.6.16",
        "version" : "2.0"
    },
    "scene" : 0,
    "scenes" : [
        {
            "name" : "Scene",
            "nodes" : [
                0
            ]
        }
    ],
    "nodes" : [
        {
            "mesh" : 0,
            "name" : "Cube"
        }
    ],
    "meshes" : [
        {
            "name" : "Cube.020",
            "primitives" : [
                {
                    "attributes" : {
                        "POSITION" : 0,
                        "NORMAL" : 1,
                        "TEXCOORD_0" : 2
                    },
                    "indices" : 3
                }
            ]
        }
    ],
    "accessors" : [
        {
            "bufferView" : 0,
            "componentType" : 5126,
            "count" : 49750,
            "max" : [
                1.7236312627792358,
                1.885481595993042,
                1.722082495689392
            ],
            "min" : [
                -1.7420885562896729,
                -1.6486577987670898,
                -1.7912994623184204
            ],
            "type" : "VEC3"
        },
        {
            "bufferView" : 1,
            "componentType" : 5126,
            "count" : 49750,
            "type" : "VEC3"
        },
        {
            "bufferView" : 2,
            "componentType" : 5126,
            "count" : 49750,
            "type" : "VEC2"
        },
        {
            "bufferView" : 3,
            "componentType" : 5123,
            "count" : 294912,
            "type" : "SCALAR"
        }
    ],
    "bufferViews" : [
        {
            "buffer" : 0,
            "byteLength" : 597000,
            "byteOffset" : 0
        },
        {
            "buffer" : 0,
            "byteLength" : 597000,
            "byteOffset" : 597000
        },
        {
            "buffer" : 0,
            "byteLength" : 398000,
            "byteOffset" : 1194000
        },
        {
            "buffer" : 0,
            "byteLength" : 589824,
            "byteOffset" : 1592000
        }
    ],
    "buffers" : [
        {
            "byteLength" : 2181824,
            "uri" : "data:application/octet-stream;base64,"
        }
    ]
}
