{
    "asset" : {
        "generator" : "Khronos glTF Blender I/O v1.6.16",
        "version" : "2.0"
    },
    "scene" : 0,
    "scenes" : [
        {
            "name" : "Scene",
            "nodes" : [
                0,
                1,
                2
            ]
        }
    ],
    "nodes" : [
        {
            "name" : "Light",
            "rotation" : [
                0.16907575726509094,
                0.7558803558349609,
                -0.27217137813568115,
                0.570947527885437
            ],
            "translation" : [
                4.076245307922363,
                5.903861999511719,
                -1.0054539442062378
            ]
        },
        {
            "name" : "Camera",
            "rotation" : [
                0.483536034822464,
                0.33687159419059753,
                -0.20870360732078552,
                0.7804827094078064
            ],
            "translation" : [
                7.358891487121582,
                4.958309173583984,
                6.925790786743164
            ]
        },
        {
            "mesh" : 0,
            "name" : "Cube"
        }
    ],
    "meshes" : [
        {
            "name" : "Cube.018",
            "primitives" : [
                {
                    "attributes" : {
                        "POSITION" : 0,
                        "NORMAL" : 1,
                        "TEXCOORD_0" : 2
                    },
                    "indices" : 3
                }
            ]
        }
    ],
    "accessors" : [
        {
            "bufferView" : 0,
            "componentType" : 5126,
            "count" : 49742,
            "max" : [
                1.7469903230667114,
                1.6545283794403076,
                1.754249930381775
            ],
            "min" : [
                -1.8401389122009277,
                -1.78606379032135,
                -1.783316731452942
            ],
            "type" : "VEC3"
        },
        {
            "bufferView" : 1,
            "componentType" : 5126,
            "count" : 49742,
            "type" : "VEC3"
        },
        {
            "bufferView" : 2,
            "componentType" : 5126,
            "count" : 49742,
            "type" : "VEC2"
        },
        {
            "bufferView" : 3,
            "componentType" : 5123,
            "count" : 294912,
            "type" : "SCALAR"
        }
    ],
    "bufferViews" : [
        {
            "buffer" : 0,
            "byteLength" : 596904,
            "byteOffset" : 0
        },
        {
            "buffer" : 0,
            "byteLength" : 596904,
            "byteOffset" : 596904
        },
        {
            "buffer" : 0,
            "byteLength" : 397936,
            "byteOffset" : 1193808
        },
        {
            "buffer" : 0,
            "byteLength" : 589824,
            "byteOffset" : 1591744
        }
    ],
    "buffers" : [
        {
            "byteLength" : 2181568,
            "uri" : "data:application/octet-stream;base64,"
        }
    ]
}
