{
    "asset" : {
        "generator" : "Khronos glTF Blender I/O v1.6.16",
        "version" : "2.0"
    },
    "scene" : 0,
    "scenes" : [
        {
            "name" : "Scene",
            "nodes" : [
                0,
                1,
                2,
                3,
                4,
                5,
                6,
                7,
                8,
                9,
                10,
                11,
                12,
                13
            ]
        }
    ],
    "nodes" : [
        {
            "mesh" : 0,
            "name" : "Cube"
        },
        {
            "name" : "Light",
            "rotation" : [
                0.16907575726509094,
                0.7558803558349609,
                -0.27217137813568115,
                0.570947527885437
            ],
            "translation" : [
                13.13813304901123,
                5.903861999511719,
                -16.487871170043945
            ]
        },
        {
            "name" : "Camera",
            "rotation" : [
                0.483536034822464,
                0.33687159419059753,
                -0.20870360732078552,
                0.7804827094078064
            ],
            "translation" : [
                7.358891487121582,
                4.958309173583984,
                6.925790786743164
            ]
        },
        {
            "mesh" : 1,
            "name" : "Cube.001",
            "translation" : [
                10,
                0,
                0
            ]
        },
        {
            "mesh" : 2,
            "name" : "Cube.002"
        },
        {
            "mesh" : 3,
            "name" : "Cube.003",
            "translation" : [
                -10,
                0,
                0
            ]
        },
        {
            "mesh" : 4,
            "name" : "Cube.004",
            "translation" : [
                -20,
                0,
                0
            ]
        },
        {
            "mesh" : 5,
            "name" : "Cube.005",
            "translation" : [
                0,
                0,
                9
            ]
        },
        {
            "name" : "Camera.001",
            "rotation" : [
                0.483536034822464,
                0.33687159419059753,
                -0.20870360732078552,
                0.7804827094078064
            ],
            "translation" : [
                7.358891487121582,
                4.958309173583984,
                15.925790786743164
            ]
        },
        {
            "mesh" : 6,
            "name" : "Cube.006",
            "translation" : [
                10,
                0,
                9
            ]
        },
        {
            "mesh" : 7,
            "name" : "Cube.007",
            "translation" : [
                0,
                0,
                9
            ]
        },
        {
            "mesh" : 8,
            "name" : "Cube.008",
            "translation" : [
                -10,
                0,
                9
            ]
        },
        {
            "mesh" : 9,
            "name" : "Cube.009",
            "translation" : [
                -20,
                0,
                9
            ]
        },
        {
            "mesh" : 10,
            "name" : "Cube.010",
            "translation" : [
                10,
                0,
                -9
            ]
        }
    ],
    "materials" : [
        {
            "doubleSided" : true,
            "name" : "Craters",
            "normalTexture" : {
                "index" : 0
            },
            "pbrMetallicRoughness" : {
                "baseColorFactor" : [
                    0.800000011920929,
                    0.800000011920929,
                    0.800000011920929,
                    1
                ],
                "metallicFactor" : 0,
                "roughnessFactor" : 0.4000000059604645
            }
        },
        {
            "doubleSided" : true,
            "name" : "gray",
            "pbrMetallicRoughness" : {
                "baseColorFactor" : [
                    0.800000011920929,
                    0.800000011920929,
                    0.800000011920929,
                    1
                ],
                "metallicFactor" : 0,
                "roughnessFactor" : 0.4000000059604645
            }
        }
    ],
    "meshes" : [
        {
            "name" : "Cube",
            "primitives" : [
                {
                    "attributes" : {
                        "POSITION" : 0,
                        "NORMAL" : 1,
                        "TEXCOORD_0" : 2
                    },
                    "indices" : 3,
                    "material" : 0
                }
            ]
        },
        {
            "name" : "Cube.001",
            "primitives" : [
                {
                    "attributes" : {
                        "POSITION" : 4,
                        "NORMAL" : 5,
                        "TEXCOORD_0" : 6
                    },
                    "indices" : 7,
                    "material" : 1
                }
            ]
        },
        {
            "name" : "Cube.002",
            "primitives" : [
                {
                    "attributes" : {
                        "POSITION" : 8,
                        "NORMAL" : 9,
                        "TEXCOORD_0" : 10
                    },
                    "indices" : 3,
                    "material" : 1
                }
            ]
        },
        {
            "name" : "Cube.003",
            "primitives" : [
                {
                    "attributes" : {
                        "POSITION" : 11,
                        "NORMAL" : 12,
                        "TEXCOORD_0" : 13
                    },
                    "indices" : 14,
                    "material" : 0
                }
            ]
        },
        {
            "name" : "Cube.004",
            "primitives" : [
                {
                    "attributes" : {
                        "POSITION" : 15,
                        "NORMAL" : 16,
                        "TEXCOORD_0" : 17
                    },
                    "indices" : 18,
                    "material" : 0
                }
            ]
        },
        {
            "name" : "Cube.005",
            "primitives" : [
                {
                    "attributes" : {
                        "POSITION" : 19,
                        "NORMAL" : 20,
                        "TEXCOORD_0" : 21
                    },
                    "indices" : 3,
                    "material" : 0
                }
            ]
        },
        {
            "name" : "Cube.006",
            "primitives" : [
                {
                    "attributes" : {
                        "POSITION" : 22,
                        "NORMAL" : 23,
                        "TEXCOORD_0" : 24
                    },
                    "indices" : 25,
                    "material" : 1
                }
            ]
        },
        {
            "name" : "Cube.007",
            "primitives" : [
                {
                    "attributes" : {
                        "POSITION" : 26,
                        "NORMAL" : 27,
                        "TEXCOORD_0" : 28
                    },
                    "indices" : 3,
                    "material" : 1
                }
            ]
        },
        {
            "name" : "Cube.008",
            "primitives" : [
                {
                    "attributes" : {
                        "POSITION" : 29,
                        "NORMAL" : 30,
                        "TEXCOORD_0" : 31
                    },
                    "indices" : 32,
                    "material" : 0
                }
            ]
        },
        {
            "name" : "Cube.009",
            "primitives" : [
                {
                    "attributes" : {
                        "POSITION" : 33,
                        "NORMAL" : 34,
                        "TEXCOORD_0" : 35
                    },
                    "indices" : 36,
                    "material" : 0
                }
            ]
        },
        {
            "name" : "Cube.010",
            "primitives" : [
                {
                    "attributes" : {
                        "POSITION" : 37,
                        "NORMAL" : 38,
                        "TEXCOORD_0" : 39
                    },
                    "indices" : 40,
                    "material" : 1
                }
            ]
        }
    ],
    "textures" : [
        {
            "sampler" : 0,
            "source" : 0
        }
    ],
    "images" : [
        {
            "bufferView" : 4,
            "mimeType" : "image/jpeg",
            "name" : "crater-normal-bigger"
        }
    ],
    "accessors" : [
        {
            "bufferView" : 0,
            "componentType" : 5126,
            "count" : 632,
            "max" : [
                2,
                7,
                4
            ],
            "min" : [
                -6,
                -1,
                -3
            ],
            "type" : "VEC3"
        },
        {
            "bufferView" : 1,
            "componentType" : 5126,
            "count" : 632,
            "type" : "VEC3"
        },
        {
            "bufferView" : 2,
            "componentType" : 5126,
            "count" : 632,
            "type" : "VEC2"
        },
        {
            "bufferView" : 3,
            "componentType" : 5123,
            "count" : 1716,
            "type" : "SCALAR"
        },
        {
            "bufferView" : 5,
            "componentType" : 5126,
            "count" : 333,
            "max" : [
                2,
                7,
                4
            ],
            "min" : [
                -6,
                -1,
                -3
            ],
            "type" : "VEC3"
        },
        {
            "bufferView" : 6,
            "componentType" : 5126,
            "count" : 333,
            "type" : "VEC3"
        },
        {
            "bufferView" : 7,
            "componentType" : 5126,
            "count" : 333,
            "type" : "VEC2"
        },
        {
            "bufferView" : 8,
            "componentType" : 5123,
            "count" : 1716,
            "type" : "SCALAR"
        },
        {
            "bufferView" : 9,
            "componentType" : 5126,
            "count" : 632,
            "max" : [
                2,
                7,
                4
            ],
            "min" : [
                -6,
                -1,
                -3
            ],
            "type" : "VEC3"
        },
        {
            "bufferView" : 10,
            "componentType" : 5126,
            "count" : 632,
            "type" : "VEC3"
        },
        {
            "bufferView" : 11,
            "componentType" : 5126,
            "count" : 632,
            "type" : "VEC2"
        },
        {
            "bufferView" : 12,
            "componentType" : 5126,
            "count" : 617,
            "max" : [
                2,
                7,
                4
            ],
            "min" : [
                -6,
                -1,
                -3
            ],
            "type" : "VEC3"
        },
        {
            "bufferView" : 13,
            "componentType" : 5126,
            "count" : 617,
            "type" : "VEC3"
        },
        {
            "bufferView" : 14,
            "componentType" : 5126,
            "count" : 617,
            "type" : "VEC2"
        },
        {
            "bufferView" : 15,
            "componentType" : 5123,
            "count" : 1716,
            "type" : "SCALAR"
        },
        {
            "bufferView" : 16,
            "componentType" : 5126,
            "count" : 609,
            "max" : [
                2,
                7,
                4
            ],
            "min" : [
                -6,
                -1,
                -3
            ],
            "type" : "VEC3"
        },
        {
            "bufferView" : 17,
            "componentType" : 5126,
            "count" : 609,
            "type" : "VEC3"
        },
        {
            "bufferView" : 18,
            "componentType" : 5126,
            "count" : 609,
            "type" : "VEC2"
        },
        {
            "bufferView" : 19,
            "componentType" : 5123,
            "count" : 1716,
            "type" : "SCALAR"
        },
        {
            "bufferView" : 20,
            "componentType" : 5126,
            "count" : 632,
            "max" : [
                2,
                7,
                4
            ],
            "min" : [
                -6,
                -1,
                -3
            ],
            "type" : "VEC3"
        },
        {
            "bufferView" : 21,
            "componentType" : 5126,
            "count" : 632,
            "type" : "VEC3"
        },
        {
            "bufferView" : 22,
            "componentType" : 5126,
            "count" : 632,
            "type" : "VEC2"
        },
        {
            "bufferView" : 23,
            "componentType" : 5126,
            "count" : 1271,
            "max" : [
                2,
                7,
                4
            ],
            "min" : [
                -6,
                -1,
                -3
            ],
            "type" : "VEC3"
        },
        {
            "bufferView" : 24,
            "componentType" : 5126,
            "count" : 1271,
            "type" : "VEC3"
        },
        {
            "bufferView" : 25,
            "componentType" : 5126,
            "count" : 1271,
            "type" : "VEC2"
        },
        {
            "bufferView" : 26,
            "componentType" : 5123,
            "count" : 6603,
            "type" : "SCALAR"
        },
        {
            "bufferView" : 27,
            "componentType" : 5126,
            "count" : 632,
            "max" : [
                2,
                7,
                4
            ],
            "min" : [
                -6,
                -1,
                -3
            ],
            "type" : "VEC3"
        },
        {
            "bufferView" : 28,
            "componentType" : 5126,
            "count" : 632,
            "type" : "VEC3"
        },
        {
            "bufferView" : 29,
            "componentType" : 5126,
            "count" : 632,
            "type" : "VEC2"
        },
        {
            "bufferView" : 30,
            "componentType" : 5126,
            "count" : 2365,
            "max" : [
                2,
                7,
                4
            ],
            "min" : [
                -6,
                -1,
                -3
            ],
            "type" : "VEC3"
        },
        {
            "bufferView" : 31,
            "componentType" : 5126,
            "count" : 2365,
            "type" : "VEC3"
        },
        {
            "bufferView" : 32,
            "componentType" : 5126,
            "count" : 2365,
            "type" : "VEC2"
        },
        {
            "bufferView" : 33,
            "componentType" : 5123,
            "count" : 6603,
            "type" : "SCALAR"
        },
        {
            "bufferView" : 34,
            "componentType" : 5126,
            "count" : 609,
            "max" : [
                2.31710147857666,
                7.351582050323486,
                4.422187805175781
            ],
            "min" : [
                -6.2463531494140625,
                -1.3198552131652832,
                -3.191805839538574
            ],
            "type" : "VEC3"
        },
        {
            "bufferView" : 35,
            "componentType" : 5126,
            "count" : 609,
            "type" : "VEC3"
        },
        {
            "bufferView" : 36,
            "componentType" : 5126,
            "count" : 609,
            "type" : "VEC2"
        },
        {
            "bufferView" : 37,
            "componentType" : 5123,
            "count" : 1716,
            "type" : "SCALAR"
        },
        {
            "bufferView" : 38,
            "componentType" : 5126,
            "count" : 333,
            "max" : [
                2.31710147857666,
                7.351582050323486,
                4.422187805175781
            ],
            "min" : [
                -6.2463531494140625,
                -1.3198552131652832,
                -3.191805839538574
            ],
            "type" : "VEC3"
        },
        {
            "bufferView" : 39,
            "componentType" : 5126,
            "count" : 333,
            "type" : "VEC3"
        },
        {
            "bufferView" : 40,
            "componentType" : 5126,
            "count" : 333,
            "type" : "VEC2"
        },
        {
            "bufferView" : 41,
            "componentType" : 5123,
            "count" : 1716,
            "type" : "SCALAR"
        }
    ],
    "bufferViews" : [
        {
            "buffer" : 0,
            "byteLength" : 7584,
            "byteOffset" : 0
        },
        {
            "buffer" : 0,
            "byteLength" : 7584,
            "byteOffset" : 7584
        },
        {
            "buffer" : 0,
            "byteLength" : 5056,
            "byteOffset" : 15168
        },
        {
            "buffer" : 0,
            "byteLength" : 3432,
            "byteOffset" : 20224
        },
        {
            "buffer" : 0,
            "byteLength" : 2763945,
            "byteOffset" : 23656
        },
        {
            "buffer" : 0,
            "byteLength" : 3996,
            "byteOffset" : 2787604
        },
        {
            "buffer" : 0,
            "byteLength" : 3996,
            "byteOffset" : 2791600
        },
        {
            "buffer" : 0,
            "byteLength" : 2664,
            "byteOffset" : 2795596
        },
        {
            "buffer" : 0,
            "byteLength" : 3432,
            "byteOffset" : 2798260
        },
        {
            "buffer" : 0,
            "byteLength" : 7584,
            "byteOffset" : 2801692
        },
        {
            "buffer" : 0,
            "byteLength" : 7584,
            "byteOffset" : 2809276
        },
        {
            "buffer" : 0,
            "byteLength" : 5056,
            "byteOffset" : 2816860
        },
        {
            "buffer" : 0,
            "byteLength" : 7404,
            "byteOffset" : 2821916
        },
        {
            "buffer" : 0,
            "byteLength" : 7404,
            "byteOffset" : 2829320
        },
        {
            "buffer" : 0,
            "byteLength" : 4936,
            "byteOffset" : 2836724
        },
        {
            "buffer" : 0,
            "byteLength" : 3432,
            "byteOffset" : 2841660
        },
        {
            "buffer" : 0,
            "byteLength" : 7308,
            "byteOffset" : 2845092
        },
        {
            "buffer" : 0,
            "byteLength" : 7308,
            "byteOffset" : 2852400
        },
        {
            "buffer" : 0,
            "byteLength" : 4872,
            "byteOffset" : 2859708
        },
        {
            "buffer" : 0,
            "byteLength" : 3432,
            "byteOffset" : 2864580
        },
        {
            "buffer" : 0,
            "byteLength" : 7584,
            "byteOffset" : 2868012
        },
        {
            "buffer" : 0,
            "byteLength" : 7584,
            "byteOffset" : 2875596
        },
        {
            "buffer" : 0,
            "byteLength" : 5056,
            "byteOffset" : 2883180
        },
        {
            "buffer" : 0,
            "byteLength" : 15252,
            "byteOffset" : 2888236
        },
        {
            "buffer" : 0,
            "byteLength" : 15252,
            "byteOffset" : 2903488
        },
        {
            "buffer" : 0,
            "byteLength" : 10168,
            "byteOffset" : 2918740
        },
        {
            "buffer" : 0,
            "byteLength" : 13206,
            "byteOffset" : 2928908
        },
        {
            "buffer" : 0,
            "byteLength" : 7584,
            "byteOffset" : 2942116
        },
        {
            "buffer" : 0,
            "byteLength" : 7584,
            "byteOffset" : 2949700
        },
        {
            "buffer" : 0,
            "byteLength" : 5056,
            "byteOffset" : 2957284
        },
        {
            "buffer" : 0,
            "byteLength" : 28380,
            "byteOffset" : 2962340
        },
        {
            "buffer" : 0,
            "byteLength" : 28380,
            "byteOffset" : 2990720
        },
        {
            "buffer" : 0,
            "byteLength" : 18920,
            "byteOffset" : 3019100
        },
        {
            "buffer" : 0,
            "byteLength" : 13206,
            "byteOffset" : 3038020
        },
        {
            "buffer" : 0,
            "byteLength" : 7308,
            "byteOffset" : 3051228
        },
        {
            "buffer" : 0,
            "byteLength" : 7308,
            "byteOffset" : 3058536
        },
        {
            "buffer" : 0,
            "byteLength" : 4872,
            "byteOffset" : 3065844
        },
        {
            "buffer" : 0,
            "byteLength" : 3432,
            "byteOffset" : 3070716
        },
        {
            "buffer" : 0,
            "byteLength" : 3996,
            "byteOffset" : 3074148
        },
        {
            "buffer" : 0,
            "byteLength" : 3996,
            "byteOffset" : 3078144
        },
        {
            "buffer" : 0,
            "byteLength" : 2664,
            "byteOffset" : 3082140
        },
        {
            "buffer" : 0,
            "byteLength" : 3432,
            "byteOffset" : 3084804
        }
    ],
    "samplers" : [
        {
            "magFilter" : 9729,
            "minFilter" : 9987
        }
    ],
    "buffers" : [
        {
            "byteLength" : 3088236,
            "uri" : "data:application/octet-stream;base64,"
        }
    ]
}
