{
    "asset" : {
        "generator" : "Khronos glTF Blender I/O v1.6.16",
        "version" : "2.0"
    },
    "scene" : 0,
    "scenes" : [
        {
            "name" : "Scene",
            "nodes" : [
                0,
                1,
                2,
                3,
                4,
                5,
                6,
                7,
                8,
                9,
                10,
                11,
                12,
                13,
                14,
                15,
                16,
                17,
                18,
                19,
                20,
                21,
                22,
                23,
                24,
                25,
                26,
                27,
                28,
                29,
                30,
                31,
                32,
                33,
                34,
                35,
                36,
                37,
                38,
                39,
                40,
                41
            ]
        }
    ],
    "nodes" : [
        {
            "name" : "Light",
            "rotation" : [
                0.16907575726509094,
                0.7558803558349609,
                -0.27217137813568115,
                0.570947527885437
            ],
            "translation" : [
                4.076245307922363,
                5.903861999511719,
                -1.0054539442062378
            ]
        },
        {
            "name" : "Camera",
            "rotation" : [
                0.483536034822464,
                0.33687159419059753,
                -0.20870360732078552,
                0.7804827094078064
            ],
            "translation" : [
                7.358891487121582,
                4.958309173583984,
                6.925790786743164
            ]
        },
        {
            "mesh" : 0,
            "name" : "Cylinder.001",
            "rotation" : [
                0,
                0,
                -0.7071068286895752,
                0.7071068286895752
            ],
            "translation" : [
                0,
                10,
                0
            ]
        },
        {
            "mesh" : 0,
            "name" : "Cylinder.002",
            "rotation" : [
                0.7071068286895752,
                0.7071067690849304,
                0,
                -3.090862321641907e-08
            ],
            "translation" : [
                0,
                10,
                0
            ]
        },
        {
            "mesh" : 0,
            "name" : "Cylinder.003",
            "rotation" : [
                -0.5,
                -0.5,
                -0.5,
                0.4999999701976776
            ],
            "translation" : [
                0,
                10,
                0
            ]
        },
        {
            "mesh" : 0,
            "name" : "Cylinder.004",
            "rotation" : [
                0.5,
                0.5,
                -0.5,
                0.4999999701976776
            ],
            "translation" : [
                0,
                10,
                0
            ]
        },
        {
            "mesh" : 0,
            "name" : "Cylinder.005",
            "rotation" : [
                0,
                0,
                -0.7071068286895752,
                0.7071068286895752
            ],
            "translation" : [
                2,
                10,
                0
            ]
        },
        {
            "mesh" : 0,
            "name" : "Cylinder.006",
            "rotation" : [
                0.7071068286895752,
                0.7071067690849304,
                0,
                -3.090862321641907e-08
            ],
            "translation" : [
                2,
                10,
                0
            ]
        },
        {
            "mesh" : 0,
            "name" : "Cylinder.007",
            "rotation" : [
                -0.7071068286895752,
                -0.7071067690849304,
                0,
                -1.1520231879558196e-07
            ],
            "translation" : [
                2,
                10,
                18
            ]
        },
        {
            "mesh" : 0,
            "name" : "Cylinder.008",
            "rotation" : [
                0.5,
                0.5,
                -0.5,
                0.4999999701976776
            ],
            "translation" : [
                2,
                10,
                0
            ]
        },
        {
            "mesh" : 0,
            "name" : "Cylinder.009",
            "rotation" : [
                0,
                0,
                -0.7071068286895752,
                0.7071068286895752
            ],
            "translation" : [
                0,
                10,
                21
            ]
        },
        {
            "mesh" : 0,
            "name" : "Cylinder.010",
            "rotation" : [
                0.7071068286895752,
                0.7071067690849304,
                0,
                -3.090862321641907e-08
            ],
            "translation" : [
                0,
                10,
                21
            ]
        },
        {
            "mesh" : 0,
            "name" : "Cylinder.011",
            "rotation" : [
                -0.5,
                -0.5,
                -0.5,
                0.4999999701976776
            ],
            "translation" : [
                0,
                10,
                21
            ]
        },
        {
            "mesh" : 0,
            "name" : "Cylinder.012",
            "rotation" : [
                0.5,
                0.5,
                -0.5,
                0.4999999701976776
            ],
            "translation" : [
                0,
                10,
                21
            ]
        },
        {
            "mesh" : 0,
            "name" : "Cylinder.013",
            "rotation" : [
                0,
                0,
                -0.7071068286895752,
                0.7071068286895752
            ],
            "translation" : [
                2,
                10,
                21
            ]
        },
        {
            "mesh" : 0,
            "name" : "Cylinder.015",
            "rotation" : [
                -0.5,
                -0.5,
                -0.5,
                0.4999999701976776
            ],
            "translation" : [
                2,
                10,
                21
            ]
        },
        {
            "mesh" : 0,
            "name" : "Cylinder.016",
            "rotation" : [
                0.5,
                0.5,
                -0.5,
                0.4999999701976776
            ],
            "translation" : [
                2,
                10,
                21
            ]
        },
        {
            "mesh" : 0,
            "name" : "Cylinder.017",
            "rotation" : [
                0,
                0,
                -0.7071068286895752,
                0.7071068286895752
            ],
            "translation" : [
                4,
                10,
                21
            ]
        },
        {
            "mesh" : 0,
            "name" : "Cylinder.018",
            "rotation" : [
                0.7071068286895752,
                0.7071067690849304,
                0,
                -3.090862321641907e-08
            ],
            "translation" : [
                4,
                10,
                21
            ]
        },
        {
            "mesh" : 0,
            "name" : "Cylinder.019",
            "rotation" : [
                -0.5,
                -0.5,
                -0.5,
                0.4999999701976776
            ],
            "translation" : [
                4,
                10,
                21
            ]
        },
        {
            "mesh" : 0,
            "name" : "Cylinder.020",
            "rotation" : [
                0.5,
                0.5,
                -0.5,
                0.4999999701976776
            ],
            "translation" : [
                4,
                10,
                21
            ]
        },
        {
            "mesh" : 0,
            "name" : "Cylinder.014",
            "rotation" : [
                0,
                0,
                -0.7071068286895752,
                0.7071068286895752
            ],
            "translation" : [
                4,
                10,
                0
            ]
        },
        {
            "mesh" : 0,
            "name" : "Cylinder.021",
            "rotation" : [
                0.7071068286895752,
                0.7071067690849304,
                0,
                -3.090862321641907e-08
            ],
            "translation" : [
                4,
                10,
                0
            ]
        },
        {
            "mesh" : 0,
            "name" : "Cylinder.022",
            "rotation" : [
                -0.5,
                -0.5,
                -0.5,
                0.4999999701976776
            ],
            "translation" : [
                4,
                10,
                0
            ]
        },
        {
            "mesh" : 0,
            "name" : "Cylinder.023",
            "rotation" : [
                0.5,
                0.5,
                -0.5,
                0.4999999701976776
            ],
            "translation" : [
                4,
                10,
                0
            ]
        },
        {
            "mesh" : 1,
            "name" : "Wall",
            "translation" : [
                -1.100000023841858,
                5,
                5
            ]
        },
        {
            "mesh" : 1,
            "name" : "Wall.001",
            "translation" : [
                -1.100000023841858,
                5,
                -5
            ]
        },
        {
            "mesh" : 1,
            "name" : "Wall.002",
            "translation" : [
                -1.100000023841858,
                15,
                5
            ]
        },
        {
            "mesh" : 1,
            "name" : "Wall.003",
            "translation" : [
                -1.100000023841858,
                15,
                -5
            ]
        },
        {
            "mesh" : 1,
            "name" : "Wall.004",
            "translation" : [
                -1.100000023841858,
                5,
                25
            ]
        },
        {
            "mesh" : 1,
            "name" : "Wall.005",
            "translation" : [
                -1.100000023841858,
                5,
                15
            ]
        },
        {
            "mesh" : 1,
            "name" : "Wall.006",
            "translation" : [
                -1.100000023841858,
                15,
                25
            ]
        },
        {
            "mesh" : 1,
            "name" : "Wall.007",
            "translation" : [
                -1.100000023841858,
                15,
                15
            ]
        },
        {
            "mesh" : 1,
            "name" : "Wall.008",
            "translation" : [
                5.099999904632568,
                5,
                5
            ]
        },
        {
            "mesh" : 1,
            "name" : "Wall.009",
            "translation" : [
                5.099999904632568,
                5,
                -5
            ]
        },
        {
            "mesh" : 1,
            "name" : "Wall.010",
            "translation" : [
                5.099999904632568,
                15,
                5
            ]
        },
        {
            "mesh" : 1,
            "name" : "Wall.011",
            "translation" : [
                5.099999904632568,
                15,
                -5
            ]
        },
        {
            "mesh" : 1,
            "name" : "Wall.012",
            "translation" : [
                5.099999904632568,
                5,
                25
            ]
        },
        {
            "mesh" : 1,
            "name" : "Wall.013",
            "translation" : [
                5.099999904632568,
                5,
                15
            ]
        },
        {
            "mesh" : 1,
            "name" : "Wall.014",
            "translation" : [
                5.099999904632568,
                15,
                25
            ]
        },
        {
            "mesh" : 1,
            "name" : "Wall.015",
            "translation" : [
                5.099999904632568,
                15,
                15
            ]
        },
        {
            "mesh" : 0,
            "name" : "Entrance",
            "rotation" : [
                0.7071068286895752,
                0.7071067690849304,
                0,
                -3.090862321641907e-08
            ],
            "translation" : [
                2,
                10,
                21
            ]
        }
    ],
    "meshes" : [
        {
            "name" : "Cylinder.002",
            "primitives" : [
                {
                    "attributes" : {
                        "POSITION" : 0,
                        "NORMAL" : 1,
                        "TEXCOORD_0" : 2
                    },
                    "indices" : 3
                }
            ]
        },
        {
            "name" : "Cube.001",
            "primitives" : [
                {
                    "attributes" : {
                        "POSITION" : 4,
                        "NORMAL" : 5,
                        "TEXCOORD_0" : 6
                    },
                    "indices" : 7
                }
            ]
        }
    ],
    "accessors" : [
        {
            "bufferView" : 0,
            "componentType" : 5126,
            "count" : 924,
            "max" : [
                10.100000381469727,
                1,
                10.100000381469727
            ],
            "min" : [
                -8.829700846035848e-07,
                -1,
                4.37113897078234e-07
            ],
            "type" : "VEC3"
        },
        {
            "bufferView" : 1,
            "componentType" : 5126,
            "count" : 924,
            "type" : "VEC3"
        },
        {
            "bufferView" : 2,
            "componentType" : 5126,
            "count" : 924,
            "type" : "VEC2"
        },
        {
            "bufferView" : 3,
            "componentType" : 5123,
            "count" : 1572,
            "type" : "SCALAR"
        },
        {
            "bufferView" : 4,
            "componentType" : 5126,
            "count" : 144,
            "max" : [
                0.09999996423721313,
                5,
                5
            ],
            "min" : [
                -0.09999996423721313,
                -5,
                -5
            ],
            "type" : "VEC3"
        },
        {
            "bufferView" : 5,
            "componentType" : 5126,
            "count" : 144,
            "type" : "VEC3"
        },
        {
            "bufferView" : 6,
            "componentType" : 5126,
            "count" : 144,
            "type" : "VEC2"
        },
        {
            "bufferView" : 7,
            "componentType" : 5123,
            "count" : 240,
            "type" : "SCALAR"
        }
    ],
    "bufferViews" : [
        {
            "buffer" : 0,
            "byteLength" : 11088,
            "byteOffset" : 0
        },
        {
            "buffer" : 0,
            "byteLength" : 11088,
            "byteOffset" : 11088
        },
        {
            "buffer" : 0,
            "byteLength" : 7392,
            "byteOffset" : 22176
        },
        {
            "buffer" : 0,
            "byteLength" : 3144,
            "byteOffset" : 29568
        },
        {
            "buffer" : 0,
            "byteLength" : 1728,
            "byteOffset" : 32712
        },
        {
            "buffer" : 0,
            "byteLength" : 1728,
            "byteOffset" : 34440
        },
        {
            "buffer" : 0,
            "byteLength" : 1152,
            "byteOffset" : 36168
        },
        {
            "buffer" : 0,
            "byteLength" : 480,
            "byteOffset" : 37320
        }
    ],
    "buffers" : [
        {
            "byteLength" : 37800,
            "uri" : "data:application/octet-stream;base64,"
        }
    ]
}
