{
    "asset" : {
        "generator" : "Khronos glTF Blender I/O v1.6.16",
        "version" : "2.0"
    },
    "scene" : 0,
    "scenes" : [
        {
            "name" : "Scene",
            "nodes" : [
                0,
                1,
                2,
                3
            ]
        }
    ],
    "nodes" : [
        {
            "name" : "Light",
            "rotation" : [
                0.16907575726509094,
                0.7558803558349609,
                -0.27217137813568115,
                0.570947527885437
            ],
            "translation" : [
                3.1853373050689697,
                4.1904425621032715,
                -6.23426628112793
            ]
        },
        {
            "name" : "Camera",
            "rotation" : [
                0.483536034822464,
                0.33687159419059753,
                -0.20870360732078552,
                0.7804827094078064
            ],
            "translation" : [
                7.358891487121582,
                4.958309173583984,
                6.925790786743164
            ]
        },
        {
            "mesh" : 0,
            "name" : "Sphere",
            "translation" : [
                0.06829357147216797,
                0.9972190856933594,
                -0.08063793182373047
            ]
        },
        {
            "name" : "Sun",
            "translation" : [
                0,
                10,
                0
            ]
        }
    ],
    "materials" : [
        {
            "doubleSided" : true,
            "name" : "Material.001",
            "pbrMetallicRoughness" : {
                "baseColorTexture" : {
                    "index" : 0
                },
                "metallicFactor" : 0.6439393758773804,
                "roughnessFactor" : 0.21969696879386902
            }
        }
    ],
    "meshes" : [
        {
            "name" : "Sphere",
            "primitives" : [
                {
                    "attributes" : {
                        "POSITION" : 0,
                        "NORMAL" : 1,
                        "TEXCOORD_0" : 2
                    },
                    "indices" : 3,
                    "material" : 0
                }
            ]
        }
    ],
    "textures" : [
        {
            "sampler" : 0,
            "source" : 0
        }
    ],
    "images" : [
        {
            "bufferView" : 4,
            "mimeType" : "image/png",
            "name" : "Material"
        }
    ],
    "accessors" : [
        {
            "bufferView" : 0,
            "componentType" : 5126,
            "count" : 18,
            "max" : [
                0.8636171817779541,
                0.9972188472747803,
                0.8636172413825989
            ],
            "min" : [
                -0.8636171817779541,
                -0.9972190856933594,
                -0.8636171221733093
            ],
            "type" : "VEC3"
        },
        {
            "bufferView" : 1,
            "componentType" : 5126,
            "count" : 18,
            "type" : "VEC3"
        },
        {
            "bufferView" : 2,
            "componentType" : 5126,
            "count" : 18,
            "type" : "VEC2"
        },
        {
            "bufferView" : 3,
            "componentType" : 5123,
            "count" : 48,
            "type" : "SCALAR"
        }
    ],
    "bufferViews" : [
        {
            "buffer" : 0,
            "byteLength" : 216,
            "byteOffset" : 0
        },
        {
            "buffer" : 0,
            "byteLength" : 216,
            "byteOffset" : 216
        },
        {
            "buffer" : 0,
            "byteLength" : 144,
            "byteOffset" : 432
        },
        {
            "buffer" : 0,
            "byteLength" : 96,
            "byteOffset" : 576
        },
        {
            "buffer" : 0,
            "byteLength" : 267340,
            "byteOffset" : 672
        }
    ],
    "samplers" : [
        {
            "magFilter" : 9729,
            "minFilter" : 9987
        }
    ],
    "buffers" : [
        {
            "byteLength" : 268012,
            "uri" : "data:application/octet-stream;base64,"
        }
    ]
}
