{
    "asset" : {
        "generator" : "Khronos glTF Blender I/O v1.6.16",
        "version" : "2.0"
    },
    "scene" : 0,
    "scenes" : [
        {
            "name" : "Scene",
            "nodes" : [
                0,
                1,
                2,
                3,
                4
            ]
        }
    ],
    "nodes" : [
        {
            "name" : "Light",
            "rotation" : [
                0.16907575726509094,
                0.27217137813568115,
                0.7558803558349609,
                0.570947527885437
            ],
            "translation" : [
                -2.1214771270751953,
                0.5002049207687378,
                1.9038619995117188
            ]
        },
        {
            "camera" : 0,
            "name" : "Camera",
            "rotation" : [
                0.483536034822464,
                0.20870360732078552,
                0.33687159419059753,
                0.7804827094078064
            ],
            "translation" : [
                7.358891487121582,
                -6.925790786743164,
                0.9583091735839844
            ]
        },
        {
            "mesh" : 0,
            "name" : "Truster",
            "rotation" : [
                0,
                0,
                1,
                7.549790126404332e-08
            ],
            "scale" : [
                0.07904238998889923,
                0.07904238998889923,
                0.07904238998889923
            ],
            "translation" : [
                -0.0006688013672828674,
                0,
                0
            ]
        },
        {
            "mesh" : 1,
            "name" : "Display",
            "rotation" : [
                0,
                0,
                -1,
                -1.9470718370939721e-07
            ],
            "scale" : [
                0.04686558246612549,
                0.04686558246612549,
                0.07021784782409668
            ],
            "translation" : [
                -0.09487485140562057,
                -0.0002928579051513225,
                0.03294020891189575
            ]
        },
        {
            "mesh" : 2,
            "name" : "Flame",
            "scale" : [
                0.13088643550872803,
                0.13088643550872803,
                0.13088643550872803
            ],
            "translation" : [
                0,
                0,
                -0.3394583463668823
            ]
        }
    ],
    "cameras" : [
        {
            "name" : "Camera",
            "perspective" : {
                "aspectRatio" : 1.7777777777777777,
                "yfov" : 0.39959652046304894,
                "zfar" : 100,
                "znear" : 0.10000000149011612
            },
            "type" : "perspective"
        }
    ],
    "materials" : [
        {
            "doubleSided" : true,
            "emissiveFactor" : [
                1,
                1,
                1
            ],
            "emissiveTexture" : {
                "index" : 0
            },
            "name" : "Material.001",
            "pbrMetallicRoughness" : {
                "baseColorTexture" : {
                    "index" : 1
                },
                "metallicFactor" : 0.2720588147640228,
                "metallicRoughnessTexture" : {
                    "index" : 2
                }
            }
        },
        {
            "doubleSided" : true,
            "emissiveFactor" : [
                1,
                1,
                1
            ],
            "emissiveTexture" : {
                "index" : 3
            },
            "name" : "Display",
            "pbrMetallicRoughness" : {
                "baseColorTexture" : {
                    "index" : 4
                },
                "metallicFactor" : 0,
                "roughnessFactor" : 0.5
            }
        },
        {
            "alphaMode" : "BLEND",
            "doubleSided" : true,
            "name" : "Material",
            "pbrMetallicRoughness" : {}
        }
    ],
    "meshes" : [
        {
            "name" : "Circle",
            "primitives" : [
                {
                    "attributes" : {
                        "POSITION" : 0,
                        "NORMAL" : 1,
                        "TEXCOORD_0" : 2
                    },
                    "indices" : 3,
                    "material" : 0
                }
            ]
        },
        {
            "name" : "Cube",
            "primitives" : [
                {
                    "attributes" : {
                        "POSITION" : 4,
                        "NORMAL" : 5,
                        "TEXCOORD_0" : 6
                    },
                    "indices" : 7,
                    "material" : 1
                }
            ]
        },
        {
            "name" : "Sphere",
            "primitives" : [
                {
                    "attributes" : {
                        "POSITION" : 8,
                        "NORMAL" : 9,
                        "TEXCOORD_0" : 10
                    },
                    "indices" : 11,
                    "material" : 2
                }
            ]
        }
    ],
    "textures" : [
        {
            "sampler" : 0,
            "source" : 0
        },
        {
            "sampler" : 0,
            "source" : 1
        },
        {
            "sampler" : 0,
            "source" : 2
        },
        {
            "sampler" : 0,
            "source" : 3
        },
        {
            "sampler" : 0,
            "source" : 3
        }
    ],
    "images" : [
        {
            "bufferView" : 4,
            "mimeType" : "image/png",
            "name" : "Truster-luminace"
        },
        {
            "bufferView" : 5,
            "mimeType" : "image/png",
            "name" : "Thruster-color"
        },
        {
            "bufferView" : 6,
            "mimeType" : "image/png",
            "name" : "thruster-roughness"
        },
        {
            "bufferView" : 11,
            "mimeType" : "image/png",
            "name" : "Display-Color"
        }
    ],
    "accessors" : [
        {
            "bufferView" : 0,
            "componentType" : 5126,
            "count" : 1132,
            "max" : [
                1.809048056602478,
                1.6239689588546753,
                7.31624698638916
            ],
            "min" : [
                -1.614457368850708,
                -1.6108592748641968,
                -2.9184279441833496
            ],
            "type" : "VEC3"
        },
        {
            "bufferView" : 1,
            "componentType" : 5126,
            "count" : 1132,
            "type" : "VEC3"
        },
        {
            "bufferView" : 2,
            "componentType" : 5126,
            "count" : 1132,
            "type" : "VEC2"
        },
        {
            "bufferView" : 3,
            "componentType" : 5123,
            "count" : 4434,
            "type" : "SCALAR"
        },
        {
            "bufferView" : 7,
            "componentType" : 5126,
            "count" : 24,
            "max" : [
                1,
                0.9318733811378479,
                1.0252609252929688
            ],
            "min" : [
                0.5971882343292236,
                -0.93565833568573,
                -0.6513984203338623
            ],
            "type" : "VEC3"
        },
        {
            "bufferView" : 8,
            "componentType" : 5126,
            "count" : 24,
            "type" : "VEC3"
        },
        {
            "bufferView" : 9,
            "componentType" : 5126,
            "count" : 24,
            "type" : "VEC2"
        },
        {
            "bufferView" : 10,
            "componentType" : 5123,
            "count" : 36,
            "type" : "SCALAR"
        },
        {
            "bufferView" : 12,
            "componentType" : 5126,
            "count" : 559,
            "max" : [
                0.9999997019767761,
                0.9999987483024597,
                1.2886320352554321
            ],
            "min" : [
                -0.9999990463256836,
                -0.9999994039535522,
                -2.6489391326904297
            ],
            "type" : "VEC3"
        },
        {
            "bufferView" : 13,
            "componentType" : 5126,
            "count" : 559,
            "type" : "VEC3"
        },
        {
            "bufferView" : 14,
            "componentType" : 5126,
            "count" : 559,
            "type" : "VEC2"
        },
        {
            "bufferView" : 15,
            "componentType" : 5123,
            "count" : 2880,
            "type" : "SCALAR"
        }
    ],
    "bufferViews" : [
        {
            "buffer" : 0,
            "byteLength" : 13584,
            "byteOffset" : 0
        },
        {
            "buffer" : 0,
            "byteLength" : 13584,
            "byteOffset" : 13584
        },
        {
            "buffer" : 0,
            "byteLength" : 9056,
            "byteOffset" : 27168
        },
        {
            "buffer" : 0,
            "byteLength" : 8868,
            "byteOffset" : 36224
        },
        {
            "buffer" : 0,
            "byteLength" : 52800,
            "byteOffset" : 45092
        },
        {
            "buffer" : 0,
            "byteLength" : 108550,
            "byteOffset" : 97892
        },
        {
            "buffer" : 0,
            "byteLength" : 179111,
            "byteOffset" : 206444
        },
        {
            "buffer" : 0,
            "byteLength" : 288,
            "byteOffset" : 385556
        },
        {
            "buffer" : 0,
            "byteLength" : 288,
            "byteOffset" : 385844
        },
        {
            "buffer" : 0,
            "byteLength" : 192,
            "byteOffset" : 386132
        },
        {
            "buffer" : 0,
            "byteLength" : 72,
            "byteOffset" : 386324
        },
        {
            "buffer" : 0,
            "byteLength" : 77807,
            "byteOffset" : 386396
        },
        {
            "buffer" : 0,
            "byteLength" : 6708,
            "byteOffset" : 464204
        },
        {
            "buffer" : 0,
            "byteLength" : 6708,
            "byteOffset" : 470912
        },
        {
            "buffer" : 0,
            "byteLength" : 4472,
            "byteOffset" : 477620
        },
        {
            "buffer" : 0,
            "byteLength" : 5760,
            "byteOffset" : 482092
        }
    ],
    "samplers" : [
        {
            "magFilter" : 9729,
            "minFilter" : 9987
        }
    ],
    "buffers" : [
        {
            "byteLength" : 487852,
            "uri" : "data:application/octet-stream;base64,"
        }
    ]
}
